#!OML:ASF H:\ManfredETheater\Project 1\Capture day 1\Session 1\subject.ASF
:FULLY-SPECIFIED
:DEGREES
238
root 1.40926 15.9686 -3.58882 -6.06835 4.00128 -0.0181973
lowerback 4.17799 -0.616219 -3.22111
upperback 0.122885 -0.939715 1.59868
thorax -2.13816 -0.42952 3.51263
lowerneck -19.154 -1.83059 -2.52506
upperneck 23.4482 -1.88109 0.341602
head 10.7529 -1.04523 0.267922
rclavicle 9.29318e-015 -1.78906e-014
rhumerus 25.6362 3.93043 -43.4841
rradius 69.2962
rwrist 9.64857
rhand 6.58332 -21.5323
rfingers 7.12502
rthumb 31.879 -48.7625
lclavicle 9.29318e-015 -1.78906e-014
lhumerus 24.9337 -2.40844 59.7853
lradius 74.5837
lwrist -23.3502
lhand 14.1109 16.2991
lfingers 7.12502
lthumb 39.0141 41.8151
rfemur -15.3147 -15.9253 7.76995
rtibia 64.7063
rfoot -34.2137 0.866822
rtoes -13.4013
lfemur -17.4467 5.2682 -10.3572
ltibia 64.7922
lfoot -35.6026 -3.32917
ltoes -13.239
239
root 1.40896 15.9683 -3.58781 -6.08142 4.01425 -0.0248586
lowerback 4.18147 -0.618426 -3.21568
upperback 0.121427 -0.942454 1.60087
thorax -2.14143 -0.430842 3.51207
lowerneck -19.1264 -1.82858 -2.52338
upperneck 23.4187 -1.87838 0.337438
head 10.7366 -1.04432 0.266859
rclavicle 1.32937e-014 -6.75868e-015
rhumerus 25.6263 3.93452 -43.465
rradius 69.2981
rwrist 9.62432
rhand 6.56739 -21.5376
rfingers 7.12502
rthumb 31.8638 -48.7707
lclavicle 1.32937e-014 -6.75868e-015
lhumerus 24.9171 -2.42039 59.7708
lradius 74.5926
lwrist -23.3199
lhand 14.1233 16.3248
lfingers 7.12502
lthumb 39.0258 41.8374
rfemur -15.287 -15.9312 7.77236
rtibia 64.7011
rfoot -34.2223 0.861216
rtoes -13.401
lfemur -17.4308 5.26389 -10.3458
ltibia 64.791
lfoot -35.6045 -3.35967
ltoes -13.1869
240
root 1.40916 15.9683 -3.58624 -6.07995 4.0242 -0.00580128
lowerback 4.15991 -0.619125 -3.23109
upperback 0.127794 -0.943647 1.59361
thorax -2.12256 -0.431807 3.51287
lowerneck -19.1752 -1.82201 -2.54693
upperneck 23.4308 -1.87182 0.380379
head 10.751 -1.03795 0.286796
rclavicle 5.2181e-016 2.14687e-014
rhumerus 25.6299 3.9193 -43.4636
rradius 69.2884
rwrist 9.62282
rhand 6.54099 -21.5596
rfingers 7.12502
rthumb 31.8387 -48.7978
lclavicle 5.2181e-016 2.14687e-014
lhumerus 24.9281 -2.42194 59.7524
lradius 74.5836
lwrist -23.3214
lhand 14.093 16.329
lfingers 7.12502
lthumb 38.9973 41.8498
rfemur -15.2779 -15.9342 7.74608
rtibia 64.7
rfoot -34.2267 0.868899
rtoes -13.3721
lfemur -17.423 5.25251 -10.3691
ltibia 64.788
lfoot -35.6051 -3.37008
ltoes -13.1764
241
root 1.40861 15.9683 -3.58545 -6.08238 4.0177 -0.042142
lowerback 4.14764 -0.611769 -3.19637
upperback 0.122729 -0.931585 1.60576
thorax -2.12225 -0.425999 3.505
lowerneck -19.1839 -1.83144 -2.56758
upperneck 23.439 -1.88206 0.394018
head 10.7563 -1.04278 0.29354
rclavicle -1.17283e-014 2.22639e-014
rhumerus 25.6131 3.91079 -43.4375
rradius 69.2936
rwrist 9.63911
rhand 6.57185 -21.5742
rfingers 7.12502
rthumb 31.8681 -48.8065
lclavicle -1.17283e-014 2.22639e-014
lhumerus 24.9234 -2.43023 59.7709
lradius 74.5918
lwrist -23.3296
lhand 14.1129 16.3032
lfingers 7.12502
lthumb 39.0159 41.8187
rfemur -15.2749 -15.9173 7.79462
rtibia 64.6958
rfoot -34.2245 0.856566
rtoes -13.3879
lfemur -17.4191 5.26905 -10.3202
ltibia 64.7887
lfoot -35.6144 -3.37028
ltoes -13.2061
242
root 1.40908 15.9683 -3.5841 -6.09127 4.03278 -0.0298454
lowerback 4.13797 -0.614507 -3.2051
upperback 0.125206 -0.935445 1.60247
thorax -2.11387 -0.428067 3.50654
lowerneck -19.188 -1.82487 -2.56472
upperneck 23.4321 -1.87348 0.393961
head 10.7543 -1.03857 0.294304
rclavicle -5.19325e-015 -1.63003e-014
rhumerus 25.6103 3.90009 -43.4392
rradius 69.2863
rwrist 9.64901
rhand 6.56894 -21.5718
rfingers 7.12502
rthumb 31.8653 -48.8047
lclavicle -5.19325e-015 -1.63003e-014
lhumerus 24.9092 -2.43299 59.7693
lradius 74.6005
lwrist -23.3449
lhand 14.0983 16.2971
lfingers 7.12502
lthumb 39.0022 41.8165
rfemur -15.2484 -15.9329 7.76818
rtibia 64.6928
rfoot -34.2413 0.849976
rtoes -13.4284
lfemur -17.4017 5.25256 -10.3364
ltibia 64.7845
lfoot -35.6153 -3.38675
ltoes -13.1754
243
root 1.40884 15.9682 -3.58487 -6.08053 4.04621 -0.0274815
lowerback 4.14718 -0.61839 -3.21224
upperback 0.106403 -0.941223 1.60677
thorax -2.13775 -0.430077 3.51574
lowerneck -19.1873 -1.82526 -2.61737
upperneck 23.4347 -1.8713 0.445099
head 10.7563 -1.03592 0.32183
rclavicle -1.55797e-014 7.95139e-016
rhumerus 25.6053 3.91161 -43.4168
rradius 69.2828
rwrist 9.6287
rhand 6.56435 -21.5598
rfingers 7.12502
rthumb 31.8609 -48.7935
lclavicle -1.55797e-014 7.95139e-016
lhumerus 24.8916 -2.42676 59.7848
lradius 74.591
lwrist -23.3623
lhand 14.0962 16.2916
lfingers 7.12502
lthumb 39.0002 41.8116
rfemur -15.2655 -15.9374 7.77193
rtibia 64.6927
rfoot -34.2334 0.841371
rtoes -13.4323
lfemur -17.4203 5.24836 -10.3402
ltibia 64.7843
lfoot -35.6096 -3.38752
ltoes -13.184
244
root 1.40815 15.9681 -3.58316 -6.09555 4.04862 -0.0246988
lowerback 4.13487 -0.618512 -3.22469
upperback 0.119486 -0.941534 1.60834
thorax -2.11711 -0.430734 3.52405
lowerneck -19.2282 -1.81958 -2.6386
upperneck 23.447 -1.86361 0.475719
head 10.769 -1.0304 0.337202
rclavicle -6.95746e-016 -1.27222e-014
rhumerus 25.6257 3.89262 -43.4243
rradius 69.2824
rwrist 9.63227
rhand 6.56632 -21.5802
rfingers 7.12502
rthumb 31.8628 -48.8136
lclavicle -6.95746e-016 -1.27222e-014
lhumerus 24.9021 -2.40943 59.7775
lradius 74.5921
lwrist -23.3747
lhand 14.0872 16.259
lfingers 7.12502
lthumb 38.9918 41.7814
rfemur -15.2379 -15.9317 7.76453
rtibia 64.6863
rfoot -34.2303 0.846432
rtoes -13.3796
lfemur -17.3947 5.26101 -10.3371
ltibia 64.7787
lfoot -35.6242 -3.36152
ltoes -13.282
